<?xml version="1.0" encoding="UTF-8" standalone="no"?>
<svg
   width="32"
   height="32"
   viewBox="0 0 31.999999 32"
   fill="none"
   version="1.1"
   id="svg2"
   xmlns="http://www.w3.org/2000/svg"
   xmlns:svg="http://www.w3.org/2000/svg">
  <defs
     id="defs2" />
  <g
     id="g1"
     transform="scale(0.64)">
    <path
       d="M 25,8 V 25 L 37.0208,37.0208 C 40.1074,33.9342 42,29.6771 42,25 42,15.6112 34.3888,8 25,8 Z"
       fill="#46ec13"
       id="path2"
       style="fill:#0984e3;fill-opacity:1" />
    <path
       id="path1"
       d="M 25,0 C 11.1929,0 0,11.1929 0,25 0,38.8071 11.1929,50 25,50 38.8071,50 50,38.8071 50,25 50,11.1929 38.8071,0 25,0 Z m 0,8 c 9.3888,0 17,7.6112 17,17 0,9.3888 -7.6112,17 -17,17 C 15.6112,42 8,34.3888 8,25 8,15.6112 15.6112,8 25,8 Z m 0,14 c -1.656854,0 -3,1.343146 -3,3 0,1.656854 1.343146,3 3,3 1.656854,0 3,-1.343146 3,-3 0,-1.656854 -1.343146,-3 -3,-3 z"
       style="fill:#1f2937;fill-opacity:1" />
  </g>
  <g
     id="text2"
     style="font-weight:700;font-size:36px;font-family:Inter, Roboto, 'Helvetica Neue', sans-serif;fill:#1f2937"
     aria-label="ClassTime"
     transform="translate(-10,-14.778107)" />
</svg>
