<?xml version="1.0" encoding="UTF-8" standalone="no"?>
<svg
   width="237.87109"
   height="50"
   viewBox="0 0 237.87109 50"
   fill="none"
   version="1.1"
   id="svg2"
   xmlns="http://www.w3.org/2000/svg"
   xmlns:svg="http://www.w3.org/2000/svg">
  <defs
     id="defs2" />
  <path
     d="M 25,8 V 25 L 37.0208,37.0208 C 40.1074,33.9342 42,29.6771 42,25 42,15.6112 34.3888,8 25,8 Z"
     fill="#0984e3"
     id="path2" />
  <path
     id="path1"
     d="M 25,0 C 11.1929,0 0,11.1929 0,25 0,38.8071 11.1929,50 25,50 38.8071,50 50,38.8071 50,25 50,11.1929 38.8071,0 25,0 Z M 90.740234,7.640625 V 35 h 5.363282 V 7.640625 Z M 25,8 c 9.3888,0 17,7.6112 17,17 0,9.3888 -7.6112,17 -17,17 C 15.6112,42 8,34.3888 8,25 8,15.6112 15.6112,8 25,8 Z m 156.13672,0.46875 c -0.528,0 -0.97203,0.1679063 -1.33203,0.5039062 -0.36,0.312 -0.54102,0.8157188 -0.54102,1.5117188 0,0.672 0.18102,1.175719 0.54102,1.511719 0.36,0.336 0.80403,0.503906 1.33203,0.503906 0.48,0 0.89976,-0.167906 1.25976,-0.503906 0.384,-0.336 0.57618,-0.839719 0.57618,-1.511719 0,-0.696 -0.19218,-1.1997187 -0.57618,-1.5117188 -0.36,-0.3359999 -0.77976,-0.5039062 -1.25976,-0.5039062 z M 79.148438,8.9355469 c -2.592,0 -4.787891,0.5653593 -6.587891,1.6933591 -1.776,1.128 -3.13236,2.687688 -4.068359,4.679688 -0.936001,1.992 -1.404297,4.283 -1.404297,6.875 0,2.64 0.408609,4.957219 1.224609,6.949218 0.816,1.968 2.075297,3.503422 3.779297,4.607422 1.728,1.08 3.912734,1.619141 6.552734,1.619141 1.368,0 2.603032,-0.108219 3.707031,-0.324219 1.104,-0.216 2.219657,-0.551812 3.347657,-1.007812 v -4.572266 c -1.224,0.432 -2.363922,0.769766 -3.419922,1.009766 -1.032,0.24 -2.074859,0.359375 -3.130859,0.359375 -2.256,0 -3.899641,-0.744422 -4.931641,-2.232422 -1.008,-1.512 -1.513672,-3.635094 -1.513672,-6.371094 0,-2.712 0.55225,-4.848203 1.65625,-6.408203 1.104,-1.56 2.701063,-2.339844 4.789063,-2.339844 0.936,0 1.883749,0.167906 2.84375,0.503906 0.983999,0.336 1.956015,0.7315 2.916015,1.1875 l 1.763672,-4.427734 c -1.176,-0.552 -2.411031,-0.9848749 -3.707031,-1.2968749 -1.272,-0.336 -2.544406,-0.5039062 -3.816406,-0.5039062 z M 156.80078,9.296875 v 2.84375 h 8.02734 V 35 h 3.24024 V 12.140625 h 7.99219 v -2.84375 z m -47.01758,5.650391 c -1.392,0 -2.73525,0.15675 -4.03125,0.46875 -1.272,0.312 -2.43618,0.744875 -3.49218,1.296875 l 1.76367,3.634765 c 0.912,-0.408 1.82433,-0.743812 2.73633,-1.007812 0.912,-0.288 1.84859,-0.431641 2.80859,-0.431641 0.96,0 1.70442,0.240703 2.23242,0.720703 0.552,0.48 0.82813,1.235578 0.82813,2.267578 v 0.863282 l -3.42188,0.107422 c -2.928,0.096 -5.12389,0.648249 -6.58789,1.65625 -1.464,0.983999 -2.19531,2.521374 -2.19531,4.609374 0,2.112 0.57651,3.682844 1.72851,4.714844 1.152,1.008 2.60347,1.511719 4.35547,1.511719 1.632,0 2.91556,-0.23875 3.85157,-0.71875 0.93599,-0.48 1.82406,-1.248687 2.66406,-2.304687 h 0.14453 L 114.21289,35 h 3.74219 V 21.896484 c 0,-2.352 -0.70705,-4.092703 -2.12305,-5.220703 -1.392,-1.152 -3.40883,-1.728515 -6.04883,-1.728515 z m 20.26953,0.03711 c -2.352,0 -4.23634,0.455187 -5.65234,1.367187 -1.416,0.912 -2.125,2.279516 -2.125,4.103516 0,1.104 0.19217,2.029438 0.57617,2.773438 0.384,0.72 0.97167,1.343093 1.76367,1.871093 0.792,0.504 1.80139,1.020829 3.02539,1.548829 1.272,0.527999 2.20665,0.958921 2.80665,1.294921 0.6,0.336 0.98434,0.636391 1.15234,0.900391 0.192,0.264 0.28906,0.564391 0.28906,0.900391 0,0.504 -0.22955,0.912609 -0.68555,1.224609 -0.43199,0.312 -1.17446,0.466797 -2.23046,0.466797 -0.936,0 -2.01624,-0.154797 -3.24024,-0.466797 -1.224,-0.312 -2.36392,-0.709453 -3.41992,-1.189453 v 4.427734 c 0.984,0.408 1.96717,0.697235 2.95117,0.865235 0.984,0.192 2.15935,0.287109 3.52735,0.287109 2.784,0 4.87362,-0.527984 6.26562,-1.583984 1.416,-1.08 2.12305,-2.615422 2.12305,-4.607422 0,-1.176 -0.2276,-2.12375 -0.6836,-2.84375 -0.432,-0.744 -1.05704,-1.355938 -1.87304,-1.835938 -0.816,-0.504 -1.78802,-0.983453 -2.91602,-1.439453 -1.152,-0.48 -2.02695,-0.864344 -2.62695,-1.152344 -0.576,-0.288 -0.9715,-0.552968 -1.1875,-0.792968 -0.192,-0.264 -0.28906,-0.551282 -0.28906,-0.863282 0,-0.864 0.79295,-1.296875 2.37695,-1.296875 0.888,0 1.76295,0.145594 2.62695,0.433594 0.864,0.264 1.77633,0.599813 2.73633,1.007813 l 1.62109,-3.853516 c -1.176,-0.552 -2.31592,-0.9475 -3.41992,-1.1875 -1.104,-0.24 -2.26819,-0.359375 -3.49219,-0.359375 z m 17.89063,0 c -2.352,0 -4.23634,0.455187 -5.65234,1.367187 -1.416,0.912 -2.12305,2.279516 -2.12305,4.103516 0,1.104 0.19217,2.029438 0.57617,2.773438 0.384,0.72 0.97167,1.343093 1.76367,1.871093 0.792,0.504 1.79944,1.020829 3.02344,1.548829 1.272,0.527999 2.20859,0.958921 2.80859,1.294921 0.6,0.336 0.98435,0.636391 1.15235,0.900391 0.192,0.264 0.28711,0.564391 0.28711,0.900391 0,0.504 -0.2276,0.912609 -0.6836,1.224609 -0.432,0.312 -1.17642,0.466797 -2.23242,0.466797 -0.936,0 -2.01623,-0.154797 -3.24023,-0.466797 -1.224,-0.312 -2.36393,-0.709453 -3.41993,-1.189453 v 4.427734 c 0.984,0.408 1.96913,0.697235 2.95313,0.865235 0.984,0.192 2.15934,0.287109 3.52734,0.287109 2.784,0 4.87168,-0.527984 6.26368,-1.583984 1.416,-1.08 2.125,-2.615422 2.125,-4.607422 0,-1.176 -0.2276,-2.12375 -0.6836,-2.84375 -0.432,-0.744 -1.05704,-1.355938 -1.87305,-1.835938 -0.81599,-0.504 -1.78801,-0.983453 -2.91601,-1.439453 -1.152,-0.48 -2.02695,-0.864344 -2.62695,-1.152344 -0.576,-0.288 -0.97346,-0.552968 -1.18946,-0.792968 -0.192,-0.264 -0.28711,-0.551282 -0.28711,-0.863282 0,-0.864 0.791,-1.296875 2.375,-1.296875 0.888,0 1.76491,0.145594 2.62891,0.433594 0.864,0.264 1.77633,0.599813 2.73633,1.007813 l 1.61914,-3.853516 c -1.176,-0.552 -2.31592,-0.9475 -3.41992,-1.1875 -1.104,-0.24 -2.26819,-0.359375 -3.49219,-0.359375 z m 49.75195,0.359375 c -1.152,0 -2.24339,0.251859 -3.27539,0.755859 -1.008,0.48 -1.81211,1.224422 -2.41211,2.232422 h -0.17969 l -0.46874,-2.628906 h -2.55469 V 35 h 3.16797 V 24.992188 c 0,-2.256001 0.37123,-3.983594 1.11523,-5.183594 0.744,-1.2 2.08725,-1.800782 4.03125,-1.800782 2.64,0 3.96094,1.524266 3.96094,4.572266 V 35 h 3.13281 V 24.34375 c 0,-2.064 0.3955,-3.634844 1.1875,-4.714844 0.816,-1.08 2.15925,-1.621094 4.03125,-1.621094 2.616,0 3.92383,1.524266 3.92383,4.572266 V 35 h 3.13281 V 22.435547 c 0,-2.496 -0.54109,-4.296391 -1.62109,-5.400391 -1.08,-1.128 -2.71053,-1.691406 -4.89453,-1.691406 -1.248,0 -2.43646,0.264969 -3.56446,0.792969 -1.104,0.528 -1.9809,1.343265 -2.6289,2.447265 h -0.17969 c -0.912,-2.16 -2.8803,-3.240234 -5.9043,-3.240233 z m 32.22071,0 c -1.704,0 -3.204,0.408609 -4.5,1.224609 -1.272,0.816 -2.26829,1.980188 -2.98829,3.492188 -0.696,1.512 -1.04296,3.323547 -1.04296,5.435547 0,2.136 0.38239,3.947547 1.15039,5.435547 0.792,1.464 1.88534,2.5685 3.27734,3.3125 1.416,0.744 3.03537,1.115234 4.85938,1.115234 1.31999,0 2.45992,-0.108219 3.41992,-0.324219 0.96,-0.192 1.93201,-0.503547 2.91601,-0.935547 v -2.771484 c -1.008,0.432 -1.99117,0.767812 -2.95117,1.007813 -0.936,0.215999 -2.01623,0.324218 -3.24023,0.324218 -1.92,0 -3.42,-0.563406 -4.5,-1.691406 -1.056,-1.152 -1.60825,-2.819906 -1.65625,-5.003906 h 13.21093 v -1.908203 c 0,-1.752 -0.3227,-3.276266 -0.9707,-4.572266 -0.624,-1.32 -1.53633,-2.340547 -2.73633,-3.060547 -1.176,-0.72 -2.59204,-1.080078 -4.24804,-1.080078 z m -50.4004,0.359375 V 35 h 3.16797 V 15.703125 Z m 50.36524,2.232422 c 1.608,0 2.78334,0.516828 3.52734,1.548828 0.744,1.008 1.12835,2.326984 1.15235,3.958984 h -9.82813 c 0.168,-1.728 0.68288,-3.07125 1.54688,-4.03125 0.888,-0.984 2.08956,-1.476562 3.60156,-1.476562 z M 25,22 a 3,3 0 0 0 -3,3 3,3 0 0 0 3,3 3,3 0 0 0 3,-3 3,3 0 0 0 -3,-3 z m 87.62891,3.892578 v 1.619141 c 0,1.248 -0.39746,2.220015 -1.18946,2.916015 -0.792,0.672 -1.76401,1.007813 -2.91601,1.007813 -0.768,0 -1.3911,-0.167906 -1.8711,-0.503906 -0.48,-0.36 -0.7207,-0.947672 -0.7207,-1.763672 0,-0.936 0.33581,-1.691578 1.00781,-2.267578 0.672,-0.576 1.87161,-0.887547 3.59961,-0.935547 z"
     style="fill:#FFFFFF;fill-opacity:1" />
  <g
     id="text2"
     style="font-weight:700;font-size:36px;font-family:Inter, Roboto, 'Helvetica Neue', sans-serif;fill:#FFFFFF"
     aria-label="ClassTime"
     transform="translate(-10,-14.778107)" />
</svg>
